<svg width="612" height="612" viewBox="0 0 612 612" fill="none" xmlns="http://www.w3.org/2000/svg">
<g clip-path="url(#clip0)">
<path d="M588.63 113.193L213.812 33.871C197.954 30.516 182.236 40.747 178.881 56.605L171.76 102.367L604.237 193.886L611.358 148.124C614.713 132.272 604.488 116.549 588.63 113.193Z" fill="black"/>
<path d="M431.009 203.591C426.631 187.825 410.155 178.506 394.394 182.877L323.24 202.63L155.498 167.13L137.05 254.295L21.786 286.287C6.02599 290.659 -3.29301 307.135 1.07799 322.896L66.036 556.974C70.414 572.734 86.891 582.059 102.651 577.682L475.259 474.279C491.019 469.901 500.338 453.431 495.967 437.664L484.817 397.48L526.606 406.315C542.464 409.676 558.182 399.445 561.537 383.587L587.976 258.65L437.45 226.797L431.009 203.591ZM474.04 322.559L483.255 279.007C484.639 272.486 491.105 268.28 497.625 269.657L541.177 278.878C547.704 280.262 551.91 286.721 550.533 293.248L541.318 336.8C539.934 343.321 533.469 347.533 526.948 346.15L483.396 336.935C476.863 335.546 472.656 329.08 474.04 322.559ZM28.27 309.646L131.385 281.04L374.684 213.523L400.865 206.249C401.343 206.12 401.82 206.059 402.286 206.059C404.386 206.059 406.897 207.437 407.631 210.076L410.705 221.146L420.336 255.85L37.148 362.186L24.443 316.418C23.647 313.546 25.399 310.442 28.27 309.646ZM472.601 444.141C473.091 445.917 472.577 447.386 472.056 448.305C471.542 449.223 470.55 450.424 468.774 450.913L96.173 554.316C95.702 554.445 95.218 554.512 94.752 554.512C92.652 554.512 90.141 553.128 89.407 550.489L51.519 413.955L434.707 307.613L458.078 391.821L472.601 444.141Z" fill="black"/>
<path d="M156.379 453.484C154.591 447.055 147.88 443.259 141.451 445.041L97.936 457.121C91.513 458.903 87.711 465.62 89.499 472.049L101.573 515.558C103.361 521.987 110.072 525.783 116.501 523.995L160.016 511.921C166.445 510.139 170.241 503.422 168.459 496.993L156.379 453.484Z" fill="black"/>
</g>
<defs>
<clipPath id="clip0">
<rect width="611.996" height="611.996" fill="white"/>
</clipPath>
</defs>
</svg>
