<svg width="493" height="493" viewBox="0 0 493 493" fill="none" xmlns="http://www.w3.org/2000/svg">
<g clip-path="url(#clip0)">
<path d="M195.313 135.991C195.855 136.926 197.294 139.406 206.523 141.145C208.68 141.553 210.935 141.759 213.222 141.759C213.224 141.759 213.224 141.759 213.225 141.759C220.823 141.759 227.966 139.541 234.872 137.396C241.417 135.365 247.599 133.445 253.808 133.445L254.072 133.447C263.319 133.529 271.964 136.388 281.114 139.417C285.066 140.725 289.138 142.127 293.304 143.192C295.064 143.642 296.201 143.168 296.925 142.786C317.464 131.95 335.279 117.538 347.085 102.208C352.959 94.583 357.946 84.332 362.332 70.868C364.353 64.651 366.589 55.375 362.646 46.625C357.571 35.354 344.134 34.05 334.468 34.05C331.548 34.05 313.851 34.726 309.179 34.726C297.365 34.726 283.542 33.834 270.617 27.22C264.999 24.345 259.726 20.623 254.146 16.683C245.688 10.709 236.943 4.533 226.649 1.333C223.806 0.448 220.949 0 218.161 0C198.667 0 186.933 21.691 183.078 28.818C177.515 39.099 171.124 52.97 171.068 69.117C171.014 83.828 176.175 97.639 180.678 108.028C185.012 118.022 190.073 126.958 195.313 135.991Z" fill="black"/>
<path d="M404.995 273.639C385.654 238.288 358.334 209.563 329.197 182.006C321.105 174.356 313.565 167.639 305.712 160.995C298.624 158.453 284.154 158.424 275.566 155.576C267.588 152.93 259.227 150.037 250.696 150.571C242.883 151.061 235.567 153.858 228.008 155.651C219.52 157.664 211.333 158.233 202.729 156.61C202.729 156.61 191.04 154.923 163.41 134.446C152.192 126.132 140.2 118.691 126.371 115.701C113.227 112.858 107.64 133.01 120.814 135.859C133.411 138.584 143.749 145.834 153.996 153.328C154.018 153.344 154.04 153.36 154.061 153.376C139.663 155.269 126.248 161.009 112.31 164.827C99.3241 168.385 104.844 188.553 117.868 184.985C131.974 181.12 145.969 174.39 160.734 173.668C163.08 173.554 165.331 173.817 167.553 174.234C134.616 201.35 104.202 231.247 82.4981 268.51C63.7171 300.753 55.3481 338.26 66.5911 374.576C73.1691 395.831 85.7951 414.686 100.514 431.149C113.372 445.532 127.787 458.487 144.901 467.523C175.762 483.821 211.755 490.391 246.33 491.833C283.387 493.377 321.592 488.266 355.753 473.375C386.874 459.812 413.306 436.208 424.348 403.475C438.91 360.285 426.121 312.244 404.995 273.639ZM267.477 292.546C274.652 292.546 280.467 298.361 280.467 305.537C280.467 312.712 274.652 318.527 267.477 318.527H195.051C194.938 320.13 194.877 321.746 194.877 323.376C194.877 325.006 194.938 326.622 195.051 328.224H267.477C274.652 328.224 280.467 334.04 280.467 341.214C280.467 348.389 274.652 354.205 267.477 354.205H202.192C213.512 376.66 236.786 392.101 263.602 392.101C274.956 392.101 285.766 389.423 295.731 384.141C302.072 380.78 309.932 383.196 313.293 389.536C316.653 395.875 314.238 403.739 307.898 407.098C294.338 414.286 279.022 418.083 263.601 418.083C222.169 418.083 186.872 391.337 174.05 354.205H150.564C143.388 354.205 137.574 348.389 137.574 341.214C137.574 334.04 143.388 328.224 150.564 328.224H169.018C168.937 326.62 168.894 325.002 168.894 323.376C168.894 321.75 168.937 320.134 169.018 318.527H150.564C143.388 318.527 137.574 312.712 137.574 305.537C137.574 298.361 143.388 292.546 150.564 292.546H174.05C186.87 255.414 222.169 228.668 263.601 228.668C279.022 228.668 294.338 232.467 307.898 239.654C314.238 243.014 316.653 250.877 313.293 257.216C309.933 263.555 302.072 265.97 295.731 262.61C285.766 257.329 274.957 254.651 263.602 254.651C236.786 254.651 213.512 270.09 202.192 292.547H267.477V292.546Z" fill="black"/>
</g>
<defs>
<clipPath id="clip0">
<rect width="492.097" height="492.097" fill="white"/>
</clipPath>
</defs>
</svg>
