<svg id="Layer_1_1_" enable-background="new 0 0 64 64" height="512" viewBox="0 0 64 64" width="512" xmlns="http://www.w3.org/2000/svg">
<path d="m14.419 14.788h11v12h-11z" transform="matrix(.304 -.953 .953 .304 -5.943 33.439)"/>
<path d="m8.76 26.147-.304.953v.001l16.194 5.171c.526.168 1.089-.122 1.257-.648.168-.526-.122-1.089-.648-1.257l-15.241-4.868c-.528-.168-1.09.122-1.258.648z"/>
<path d="m15.188 9.304c-.526-.168-1.089.122-1.257.648-.168.526.122 1.089.648 1.257l15.242 4.868c.526.168 1.089-.122 1.257-.648.168-.526-.122-1.089-.648-1.257z"/>
<path d="m59.928 33.565c.251-.788-.185-1.634-.973-1.885 0-.001 0-.001 0-.001l-30.959-9.887-.913 2.857 30.959 9.888c.792.252 1.635-.184 1.886-.972z"/>
<path d="m31 57c.552 0 1-.447 1-1v-6c0-.553-.448-1-1-1h-3.101c-.463-2.282-2.48-4-4.899-4h-12c-2.419 0-4.436 1.718-4.899 4h-3.101c-.552 0-1 .447-1 1v6c0 .553.448 1 1 1z"/>
</svg>