<svg width="512" height="512" viewBox="0 0 512 512" fill="none" xmlns="http://www.w3.org/2000/svg">
<path d="M100.267 193.546L127.019 109.682L218.507 138.866L191.755 222.73L100.267 193.546Z" fill="black"/>
<path d="M70.0799 209.176L67.6479 216.8V216.808L197.2 258.176C201.408 259.52 205.912 257.2 207.256 252.992C208.6 248.784 206.28 244.28 202.072 242.936L80.1439 203.992C75.9199 202.648 71.4239 204.968 70.0799 209.176V209.176Z" fill="black"/>
<path d="M121.504 74.432C117.296 73.088 112.792 75.408 111.448 79.616C110.104 83.824 112.424 88.328 116.632 89.672L238.568 128.616C242.776 129.96 247.28 127.64 248.624 123.432C249.968 119.224 247.648 114.72 243.44 113.376L121.504 74.432Z" fill="black"/>
<path d="M479.424 268.52C481.432 262.216 477.944 255.448 471.64 253.44C471.64 253.432 471.64 253.432 471.64 253.432L223.968 174.336L216.664 197.192L464.336 276.296C470.672 278.312 477.416 274.824 479.424 268.52V268.52Z" fill="black"/>
<path d="M248 456C252.416 456 256 452.424 256 448V400C256 395.576 252.416 392 248 392H223.192C219.488 373.744 203.352 360 184 360H88C68.648 360 52.512 373.744 48.808 392H24C19.584 392 16 395.576 16 400V448C16 452.424 19.584 456 24 456H248Z" fill="black"/>
</svg>
