




<svg width="250" height="171" viewBox="0 0 250 171" fill="none" xmlns="http://www.w3.org/2000/svg">
<mask id="path-1-inside-1" fill="white">
<path d="M243.581 102.409L213.277 33.1886L182.975 102.409L181.243 101.652L213.277 28.4736L245.313 101.652L243.581 102.409Z"/>
</mask>
<path d="M243.581 102.409L241.749 103.211L242.551 105.043L244.382 104.242L243.581 102.409ZM213.277 33.1886L215.109 32.3865L213.277 28.2014L211.445 32.3866L213.277 33.1886ZM182.975 102.409L182.174 104.242L184.006 105.043L184.807 103.211L182.975 102.409ZM181.243 101.652L179.411 100.85L178.609 102.683L180.442 103.484L181.243 101.652ZM213.277 28.4736L215.109 27.6715L213.277 23.4863L211.445 27.6715L213.277 28.4736ZM245.313 101.652L246.114 103.484L247.948 102.683L247.145 100.85L245.313 101.652ZM245.413 101.607L215.109 32.3865L211.445 33.9907L241.749 103.211L245.413 101.607ZM211.445 32.3866L181.143 101.607L184.807 103.211L215.109 33.9906L211.445 32.3866ZM183.776 100.577L182.044 99.8195L180.442 103.484L182.174 104.242L183.776 100.577ZM183.075 102.454L215.109 29.2756L211.445 27.6715L179.411 100.85L183.075 102.454ZM211.445 29.2756L243.481 102.454L247.145 100.85L215.109 27.6715L211.445 29.2756ZM244.512 99.8195L242.78 100.577L244.382 104.242L246.114 103.484L244.512 99.8195Z" fill="white" mask="url(#path-1-inside-1)"/>
<mask id="path-3-inside-2" fill="white">
<path d="M212.333 30.8308H214.223V102.032H212.333V30.8308Z"/>
</mask>
<path d="M212.333 30.8308V28.8308H210.333V30.8308H212.333ZM214.223 30.8308H216.223V28.8308H214.223V30.8308ZM214.223 102.032V104.032H216.223V102.032H214.223ZM212.333 102.032H210.333V104.032H212.333V102.032ZM212.333 32.8308H214.223V28.8308H212.333V32.8308ZM212.223 30.8308V102.032H216.223V30.8308H212.223ZM214.223 100.032H212.333V104.032H214.223V100.032ZM214.333 102.032V30.8308H210.333V102.032H214.333Z" fill="white" mask="url(#path-3-inside-2)"/>
<path d="M217.611 120.745L217.611 120.745C207.195 122.604 197.139 117.631 192.048 109.032H234.499C230.912 115.087 224.816 119.458 217.611 120.745Z" stroke="#FFA800" stroke-width="14"/>
<path d="M247.331 103.987C247.379 103.988 247.427 103.988 247.474 103.987L247.403 101.619L247.331 103.987ZM247.396 101.391L247.4 101.499L247.319 103.959V101.388V98.796L247.396 101.391Z" stroke="#FFA800" stroke-width="14"/>
<mask id="path-7-inside-3" fill="white">
<path d="M67.0249 102.409L36.7236 33.1886L6.4189 102.409L4.6897 101.652L36.7236 28.4736L68.7569 101.652L67.0249 102.409Z"/>
</mask>
<path d="M67.0249 102.409L65.1927 103.211L65.9944 105.043L67.8261 104.242L67.0249 102.409ZM36.7236 33.1886L38.5557 32.3866L36.7237 28.2014L34.8915 32.3865L36.7236 33.1886ZM6.4189 102.409L5.6166 104.241L7.44883 105.044L8.25102 103.211L6.4189 102.409ZM4.6897 101.652L2.85755 100.85L2.05565 102.682L3.88739 103.484L4.6897 101.652ZM36.7236 28.4736L38.5557 27.6715L36.7236 23.4861L34.8914 27.6715L36.7236 28.4736ZM68.7569 101.652L69.5581 103.484L71.3914 102.683L70.5891 100.85L68.7569 101.652ZM68.857 101.607L38.5557 32.3866L34.8914 33.9906L65.1927 103.211L68.857 101.607ZM34.8915 32.3865L4.58679 101.607L8.25102 103.211L38.5557 33.9907L34.8915 32.3865ZM7.22121 100.577L5.492 99.82L3.88739 103.484L5.6166 104.241L7.22121 100.577ZM6.52184 102.454L38.5557 29.2756L34.8914 27.6715L2.85755 100.85L6.52184 102.454ZM34.8914 29.2756L66.9248 102.454L70.5891 100.85L38.5557 27.6715L34.8914 29.2756ZM67.9557 99.8195L66.2237 100.577L67.8261 104.242L69.5581 103.484L67.9557 99.8195Z" fill="white" mask="url(#path-7-inside-3)"/>
<mask id="path-9-inside-4" fill="white">
<path d="M35.7773 30.8308H37.6671V102.032H35.7773V30.8308Z"/>
</mask>
<path d="M35.7773 30.8308V28.8308H33.7773V30.8308H35.7773ZM37.6671 30.8308H39.6671V28.8308H37.6671V30.8308ZM37.6671 102.032V104.032H39.6671V102.032H37.6671ZM35.7773 102.032H33.7773V104.032H35.7773V102.032ZM35.7773 32.8308H37.6671V28.8308H35.7773V32.8308ZM35.6671 30.8308V102.032H39.6671V30.8308H35.6671ZM37.6671 100.032H35.7773V104.032H37.6671V100.032ZM37.7773 102.032V30.8308H33.7773V102.032H37.7773Z" fill="white" mask="url(#path-9-inside-4)"/>
<path d="M40.97 120.252L40.9699 120.252C31.0734 122.019 21.5096 117.49 16.3911 109.532H57.0491C53.4861 115.072 47.7255 119.046 40.97 120.252Z" stroke="#FFA800" stroke-width="15"/>
<mask id="path-12-inside-5" fill="white">
<path d="M70.7651 98.796H2.68208C1.24895 98.7487 0.0486959 99.8727 0.00143732 101.306C-0.0458212 102.739 1.07814 103.939 2.51126 103.986C2.5682 103.988 2.62514 103.988 2.68208 103.986H70.7651C72.1983 103.939 73.3222 102.739 73.275 101.306C73.23 99.9387 72.1322 98.841 70.7651 98.796V98.796Z"/>
</mask>
<path d="M2.68208 98.796L2.18771 113.788L2.43483 113.796H2.68208V98.796ZM2.51126 103.986L2.0169 118.978L2.03918 118.979L2.06147 118.98L2.51126 103.986ZM2.68208 103.986V88.9865H2.45713L2.23228 88.9932L2.68208 103.986ZM70.7651 103.986V118.986H71.0124L71.2595 118.978L70.7651 103.986ZM73.275 101.306L58.2831 101.799L58.2831 101.8L73.275 101.306ZM70.7651 83.796H2.68208V113.796H70.7651V83.796ZM3.17645 83.8041C-6.53901 83.4838 -14.6702 91.1011 -14.9904 100.811L14.9933 101.8C14.7676 108.644 9.0369 114.014 2.18771 113.788L3.17645 83.8041ZM-14.9904 100.811C-15.3108 110.527 -7.69344 118.658 2.0169 118.978L3.00563 88.9946C9.84971 89.2203 15.2191 94.951 14.9933 101.8L-14.9904 100.811ZM2.06147 118.98C2.4182 118.99 2.77514 118.99 3.13188 118.98L2.23228 88.9932C2.47514 88.9859 2.7182 88.9859 2.96106 88.9932L2.06147 118.98ZM2.68208 118.986H70.7651V88.9865H2.68208V118.986ZM71.2595 118.978C80.9699 118.658 88.5872 110.527 88.2668 100.811L58.2831 101.8C58.0572 94.951 63.4266 89.2203 70.2708 88.9946L71.2595 118.978ZM88.2668 100.813C87.962 91.5482 80.5227 84.1089 71.2584 83.8041L70.2719 113.788C63.7417 113.573 58.4979 108.329 58.2831 101.799L88.2668 100.813Z" fill="#FFA800" mask="url(#path-12-inside-5)"/>
<path d="M172.426 25.526C173.313 25.9279 174.196 26.3656 175.076 26.8272C174.165 26.4347 173.238 26.0588 172.285 25.7065C164.896 22.871 157.157 21.0531 149.279 20.3016C145.378 19.8872 141.456 19.7252 137.534 19.8167C134.696 19.854 131.864 20.0502 129.05 20.4042L128.482 16.8894C131.508 16.7206 134.542 16.7286 137.569 16.9135L137.584 16.9144L137.598 16.9151C141.611 17.1209 145.607 17.5864 149.559 18.3095L149.575 18.3124L149.591 18.3152C157.479 19.6694 165.146 22.0885 172.383 25.5061L172.404 25.5162L172.426 25.526ZM212.43 27.5814L212.387 27.6829L212.144 27.5785C212.016 27.5234 211.933 27.3974 211.934 27.2596V27.2591C211.934 27.0687 212.089 26.9137 212.28 26.914C212.428 26.9142 212.554 27.0066 212.603 27.137L212.539 27.3776C212.535 27.3946 212.529 27.4096 212.521 27.4225L212.43 27.5814Z" stroke="#FFA800" stroke-width="6"/>
<path d="M76.4886 25.6894C75.6049 26.016 74.7435 26.3629 73.8968 26.7246C74.7119 26.3007 75.5297 25.898 76.3506 25.526L76.3722 25.5162L76.3935 25.5061C83.6291 22.0891 91.2953 19.6699 99.1824 18.3152L99.1983 18.3124L99.2143 18.3095C103.168 17.5864 107.164 17.1209 111.178 16.9151L111.194 16.9143L111.211 16.9133C114.235 16.7248 117.267 16.7128 120.291 16.877L119.724 20.3871C116.91 20.0331 114.077 19.8369 111.24 19.7996C107.318 19.7081 103.395 19.8701 99.4947 20.2845C91.6166 21.036 83.8773 22.8539 76.4886 25.6894ZM36.3812 27.6864L36.3296 27.5638L36.2719 27.4632L36.1675 27.162C36.211 27.0225 36.341 26.9214 36.4946 26.9214C36.6842 26.9213 36.8376 27.0748 36.8376 27.264V27.2643C36.8377 27.4013 36.7562 27.5252 36.6302 27.5794L36.3812 27.6864Z" stroke="#FFA800" stroke-width="6"/>
<path d="M123.536 17.057H126.464V152.205H123.536V17.057Z" stroke="#FFA800" stroke-width="8"/>
<path d="M128.203 159.334V163.834H132.703H173.85H173.85H173.85H173.85H173.851H173.851H173.851H173.851H173.851H173.851H173.851H173.851H173.851H173.851H173.851H173.851H173.851H173.852H173.852H173.852H173.852H173.852H173.852H173.852H173.852H173.852H173.852H173.852H173.852H173.853H173.853H173.853H173.853H173.853H173.853H173.853H173.853H173.853H173.853H173.853H173.853H173.853H173.854H173.854H173.854H173.854H173.854H173.854H173.854H173.854H173.854H173.854H173.854H173.854H173.855H173.855H173.855H173.855H173.855H173.855H173.855H173.855H173.855H173.855H173.855H173.855H173.855H173.856H173.856H173.856H173.856H173.856H173.856H173.856H173.856H173.856H173.856H173.856H173.856H173.856H173.857H173.857H173.857H173.857H173.857H173.857H173.857H173.857H173.857H173.857H173.857H173.857H173.857H173.858H173.858H173.858H173.858H173.858H173.858H173.858H173.858L173.858 163.834L173.858 163.834H173.858H173.858H173.858H173.859H173.859H173.859H173.859H173.859H173.859H173.859H173.859H173.859H173.859H173.859H173.859H173.859H173.86H173.86H173.86H173.86H173.86H173.86H173.86H173.86C174.402 163.836 174.841 164.276 174.84 164.819C174.84 165.362 174.399 165.802 173.856 165.801H173.85L76.1557 165.801C76.1551 165.801 76.1545 165.801 76.1539 165.801C75.6112 165.799 75.1735 165.36 75.1729 164.819C75.1722 164.276 75.6108 163.836 76.1539 163.834C76.1545 163.834 76.1551 163.834 76.1556 163.834L117.297 163.834H121.797V159.334V132.626H128.203V159.334ZM76.1497 170.301H173.85L76.1497 159.334C73.1212 159.338 70.6694 161.796 70.6729 164.824C70.6763 167.848 73.1263 170.297 76.1497 170.301Z" stroke="white" stroke-width="9"/>
<path d="M122.698 5.80198C122.698 4.5305 123.729 3.5 125 3.5C126.271 3.5 127.302 4.53029 127.302 5.80198V22.2645H122.698V5.80198Z" stroke="white" stroke-width="7"/>
</svg>
